<svg version="1.0" preserveAspectRatio="xMidYMid meet" viewBox="0 232.2047897201 1554.432 983.03995648" zoomAndPan="magnify" xmlns:xlink="http://www.w3.org/1999/xlink" xmlns="http://www.w3.org/2000/svg" style="max-height: 500px" width="1554.432" height="983.03995648"><defs><g/></defs><g fill-opacity="1" fill="#ffffff"><g transform="translate(0.00003385, 518.655089)"><g><path d="M 46.359375 0 L 46.359375 -258.953125 L 104.03125 -258.953125 L 104.03125 0 Z M 4.90625 -134.1875 L 4.90625 -183.1875 L 145.5 -183.1875 L 145.5 -134.1875 Z M 4.90625 -134.1875"/></g></g></g><g fill-opacity="1" fill="#ffffff"><g transform="translate(146.630369, 518.655089)"><g><path d="M 96.875 3.765625 C 80.039062 3.765625 65.023438 -0.378906 51.828125 -8.671875 C 38.640625 -16.960938 28.210938 -28.269531 20.546875 -42.59375 C 12.878906 -56.914062 9.046875 -73.25 9.046875 -91.59375 C 9.046875 -109.9375 12.878906 -126.269531 20.546875 -140.59375 C 28.210938 -154.914062 38.640625 -166.222656 51.828125 -174.515625 C 65.023438 -182.816406 80.039062 -186.96875 96.875 -186.96875 C 109.1875 -186.96875 120.304688 -184.578125 130.234375 -179.796875 C 140.160156 -175.023438 148.265625 -168.425781 154.546875 -160 C 160.828125 -151.582031 164.34375 -141.972656 165.09375 -131.171875 L 165.09375 -52.015625 C 164.34375 -41.210938 160.890625 -31.597656 154.734375 -23.171875 C 148.578125 -14.753906 140.472656 -8.160156 130.421875 -3.390625 C 120.367188 1.378906 109.1875 3.765625 96.875 3.765625 Z M 108.5625 -48.25 C 120.875 -48.25 130.796875 -52.332031 138.328125 -60.5 C 145.867188 -68.664062 149.640625 -79.03125 149.640625 -91.59375 C 149.640625 -100.132812 147.941406 -107.671875 144.546875 -114.203125 C 141.160156 -120.742188 136.390625 -125.832031 130.234375 -129.46875 C 124.078125 -133.113281 116.976562 -134.9375 108.9375 -134.9375 C 100.894531 -134.9375 93.796875 -133.113281 87.640625 -129.46875 C 81.484375 -125.832031 76.582031 -120.742188 72.9375 -114.203125 C 69.289062 -107.671875 67.46875 -100.132812 67.46875 -91.59375 C 67.46875 -83.300781 69.226562 -75.890625 72.75 -69.359375 C 76.269531 -62.828125 81.171875 -57.675781 87.453125 -53.90625 C 93.734375 -50.132812 100.769531 -48.25 108.5625 -48.25 Z M 147.375 0 L 147.375 -49.375 L 156.046875 -93.859375 L 147.375 -138.34375 L 147.375 -183.1875 L 203.921875 -183.1875 L 203.921875 0 Z M 147.375 0"/></g></g></g><g fill-opacity="1" fill="#ffffff"><g transform="translate(370.910792, 518.655089)"><g><path d="M 141.34375 0 L 141.34375 -104.40625 C 141.34375 -113.957031 138.390625 -121.6875 132.484375 -127.59375 C 126.585938 -133.5 119.113281 -136.453125 110.0625 -136.453125 C 103.78125 -136.453125 98.25 -135.128906 93.46875 -132.484375 C 88.695312 -129.847656 84.929688 -126.078125 82.171875 -121.171875 C 79.410156 -116.273438 78.03125 -110.6875 78.03125 -104.40625 L 55.78125 -115.34375 C 55.78125 -129.664062 58.921875 -142.226562 65.203125 -153.03125 C 71.492188 -163.84375 80.226562 -172.203125 91.40625 -178.109375 C 102.59375 -184.015625 115.222656 -186.96875 129.296875 -186.96875 C 142.859375 -186.96875 154.851562 -183.757812 165.28125 -177.34375 C 175.71875 -170.9375 183.945312 -162.457031 189.96875 -151.90625 C 196 -141.351562 199.015625 -129.796875 199.015625 -117.234375 L 199.015625 0 Z M 20.359375 0 L 20.359375 -183.1875 L 78.03125 -183.1875 L 78.03125 0 Z M 20.359375 0"/></g></g></g><g fill-opacity="1" fill="#ffffff"><g transform="translate(586.521539, 518.655089)"><g><path d="M 78.03125 0 L 0.375 -183.1875 L 62.578125 -183.1875 L 115.34375 -30.53125 L 88.203125 -30.53125 L 140.96875 -183.1875 L 202.03125 -183.1875 L 124.390625 0 Z M 78.03125 0"/></g></g></g><g fill-opacity="1" fill="#ffffff"><g transform="translate(788.939261, 518.655089)"><g><path d="M 20.359375 0 L 20.359375 -183.1875 L 78.03125 -183.1875 L 78.03125 0 Z M 49.375 -208.453125 C 40.332031 -208.453125 32.859375 -211.53125 26.953125 -217.6875 C 21.046875 -223.84375 18.09375 -231.316406 18.09375 -240.109375 C 18.09375 -249.148438 21.046875 -256.6875 26.953125 -262.71875 C 32.859375 -268.75 40.332031 -271.765625 49.375 -271.765625 C 58.425781 -271.765625 65.835938 -268.75 71.609375 -262.71875 C 77.390625 -256.6875 80.28125 -249.148438 80.28125 -240.109375 C 80.28125 -231.316406 77.390625 -223.84375 71.609375 -217.6875 C 65.835938 -211.53125 58.425781 -208.453125 49.375 -208.453125 Z M 49.375 -208.453125"/></g></g></g><g fill-opacity="1" fill="#ffffff"><g transform="translate(887.320997, 518.655089)"><g><path d="M 20.359375 0 L 20.359375 -183.1875 L 78.03125 -183.1875 L 78.03125 0 Z M 78.03125 -100.640625 L 53.90625 -119.484375 C 58.675781 -140.847656 66.710938 -157.4375 78.015625 -169.25 C 89.328125 -181.0625 105.035156 -186.96875 125.140625 -186.96875 C 133.941406 -186.96875 141.671875 -185.644531 148.328125 -183 C 154.984375 -180.363281 160.828125 -176.28125 165.859375 -170.75 L 131.546875 -127.40625 C 129.035156 -130.164062 125.894531 -132.300781 122.125 -133.8125 C 118.351562 -135.320312 114.082031 -136.078125 109.3125 -136.078125 C 99.757812 -136.078125 92.15625 -133.125 86.5 -127.21875 C 80.851562 -121.3125 78.03125 -112.453125 78.03125 -100.640625 Z M 78.03125 -100.640625"/></g></g></g><g fill-opacity="1" fill="#ffffff"><g transform="translate(460.94997, 815.094294)"><g><path d="M 96.875 3.765625 C 80.039062 3.765625 65.023438 -0.378906 51.828125 -8.671875 C 38.640625 -16.960938 28.210938 -28.269531 20.546875 -42.59375 C 12.878906 -56.914062 9.046875 -73.25 9.046875 -91.59375 C 9.046875 -109.9375 12.878906 -126.269531 20.546875 -140.59375 C 28.210938 -154.914062 38.640625 -166.222656 51.828125 -174.515625 C 65.023438 -182.816406 80.039062 -186.96875 96.875 -186.96875 C 109.1875 -186.96875 120.304688 -184.578125 130.234375 -179.796875 C 140.160156 -175.023438 148.265625 -168.425781 154.546875 -160 C 160.828125 -151.582031 164.34375 -141.972656 165.09375 -131.171875 L 165.09375 -52.015625 C 164.34375 -41.210938 160.890625 -31.597656 154.734375 -23.171875 C 148.578125 -14.753906 140.472656 -8.160156 130.421875 -3.390625 C 120.367188 1.378906 109.1875 3.765625 96.875 3.765625 Z M 108.5625 -48.25 C 120.875 -48.25 130.796875 -52.332031 138.328125 -60.5 C 145.867188 -68.664062 149.640625 -79.03125 149.640625 -91.59375 C 149.640625 -100.132812 147.941406 -107.671875 144.546875 -114.203125 C 141.160156 -120.742188 136.390625 -125.832031 130.234375 -129.46875 C 124.078125 -133.113281 116.976562 -134.9375 108.9375 -134.9375 C 100.894531 -134.9375 93.796875 -133.113281 87.640625 -129.46875 C 81.484375 -125.832031 76.582031 -120.742188 72.9375 -114.203125 C 69.289062 -107.671875 67.46875 -100.132812 67.46875 -91.59375 C 67.46875 -83.300781 69.226562 -75.890625 72.75 -69.359375 C 76.269531 -62.828125 81.171875 -57.675781 87.453125 -53.90625 C 93.734375 -50.132812 100.769531 -48.25 108.5625 -48.25 Z M 147.375 0 L 147.375 -49.375 L 156.046875 -93.859375 L 147.375 -138.34375 L 147.375 -183.1875 L 203.921875 -183.1875 L 203.921875 0 Z M 147.375 0"/></g></g></g><g fill-opacity="1" fill="#ffffff"><g transform="translate(685.230394, 815.094294)"><g><path d="M 141.34375 0 L 141.34375 -104.40625 C 141.34375 -113.957031 138.390625 -121.6875 132.484375 -127.59375 C 126.585938 -133.5 119.113281 -136.453125 110.0625 -136.453125 C 103.78125 -136.453125 98.25 -135.128906 93.46875 -132.484375 C 88.695312 -129.847656 84.929688 -126.078125 82.171875 -121.171875 C 79.410156 -116.273438 78.03125 -110.6875 78.03125 -104.40625 L 55.78125 -115.34375 C 55.78125 -129.664062 58.921875 -142.226562 65.203125 -153.03125 C 71.492188 -163.84375 80.226562 -172.203125 91.40625 -178.109375 C 102.59375 -184.015625 115.222656 -186.96875 129.296875 -186.96875 C 142.859375 -186.96875 154.851562 -183.757812 165.28125 -177.34375 C 175.71875 -170.9375 183.945312 -162.457031 189.96875 -151.90625 C 196 -141.351562 199.015625 -129.796875 199.015625 -117.234375 L 199.015625 0 Z M 20.359375 0 L 20.359375 -183.1875 L 78.03125 -183.1875 L 78.03125 0 Z M 20.359375 0"/></g></g></g><g fill-opacity="1" fill="#ffffff"><g transform="translate(900.84114, 815.094294)"><g><path d="M 9.796875 82.171875 C -3.511719 82.171875 -14.820312 79.972656 -24.125 75.578125 C -33.425781 71.179688 -41.59375 64.960938 -48.625 56.921875 L -12.8125 21.109375 C -10.050781 24.378906 -7.222656 26.703125 -4.328125 28.078125 C -1.441406 29.460938 1.882812 30.15625 5.65625 30.15625 C 11.1875 30.15625 15.769531 28.519531 19.40625 25.25 C 23.050781 21.988281 24.875 16.960938 24.875 10.171875 L 24.875 -183.1875 L 82.546875 -183.1875 L 82.546875 9.421875 C 82.546875 24.242188 79.40625 37.054688 73.125 47.859375 C 66.84375 58.671875 58.234375 67.09375 47.296875 73.125 C 36.367188 79.15625 23.867188 82.171875 9.796875 82.171875 Z M 54.28125 -208.453125 C 45.226562 -208.453125 37.75 -211.53125 31.84375 -217.6875 C 25.945312 -223.84375 23 -231.316406 23 -240.109375 C 23 -249.148438 25.945312 -256.6875 31.84375 -262.71875 C 37.75 -268.75 45.226562 -271.765625 54.28125 -271.765625 C 63.320312 -271.765625 70.734375 -268.75 76.515625 -262.71875 C 82.296875 -256.6875 85.1875 -249.148438 85.1875 -240.109375 C 85.1875 -231.316406 82.296875 -223.84375 76.515625 -217.6875 C 70.734375 -211.53125 63.320312 -208.453125 54.28125 -208.453125 Z M 54.28125 -208.453125"/></g></g></g><g fill-opacity="1" fill="#ffffff"><g transform="translate(1003.746267, 815.094294)"><g><path d="M 101.765625 4.140625 C 84.929688 4.140625 70.039062 0.683594 57.09375 -6.21875 C 44.15625 -13.125 34.039062 -22.671875 26.75 -34.859375 C 19.46875 -47.046875 15.828125 -61.054688 15.828125 -76.890625 L 15.828125 -183.1875 L 73.5 -183.1875 L 73.5 -77.65625 C 73.5 -71.363281 74.566406 -65.957031 76.703125 -61.4375 C 78.835938 -56.914062 82.039062 -53.394531 86.3125 -50.875 C 90.59375 -48.363281 95.742188 -47.109375 101.765625 -47.109375 C 110.316406 -47.109375 117.101562 -49.8125 122.125 -55.21875 C 127.15625 -60.625 129.671875 -68.101562 129.671875 -77.65625 L 129.671875 -183.1875 L 187.34375 -183.1875 L 187.34375 -77.265625 C 187.34375 -61.179688 183.695312 -47.046875 176.40625 -34.859375 C 169.113281 -22.671875 159.0625 -13.125 146.25 -6.21875 C 133.4375 0.683594 118.609375 4.140625 101.765625 4.140625 Z M 101.765625 4.140625"/></g></g></g><g fill-opacity="1" fill="#ffffff"><g transform="translate(1206.917882, 815.094294)"><g><path d="M 20.359375 0 L 20.359375 -183.1875 L 78.03125 -183.1875 L 78.03125 0 Z M 137.578125 0 L 137.578125 -107.046875 C 137.578125 -116.347656 134.75 -123.570312 129.09375 -128.71875 C 123.445312 -133.875 116.476562 -136.453125 108.1875 -136.453125 C 102.40625 -136.453125 97.25 -135.257812 92.71875 -132.875 C 88.195312 -130.488281 84.617188 -127.15625 81.984375 -122.875 C 79.347656 -118.601562 78.03125 -113.328125 78.03125 -107.046875 L 55.78125 -116.84375 C 55.78125 -131.425781 58.921875 -143.929688 65.203125 -154.359375 C 71.492188 -164.785156 80.039062 -172.828125 90.84375 -178.484375 C 101.644531 -184.140625 113.832031 -186.96875 127.40625 -186.96875 C 140.21875 -186.96875 151.710938 -184.078125 161.890625 -178.296875 C 172.066406 -172.515625 180.171875 -164.472656 186.203125 -154.171875 C 192.234375 -143.867188 195.25 -131.554688 195.25 -117.234375 L 195.25 0 Z M 254.8125 0 L 254.8125 -107.046875 C 254.8125 -116.347656 251.984375 -123.570312 246.328125 -128.71875 C 240.671875 -133.875 233.695312 -136.453125 225.40625 -136.453125 C 219.625 -136.453125 214.472656 -135.257812 209.953125 -132.875 C 205.429688 -130.488281 201.847656 -127.15625 199.203125 -122.875 C 196.566406 -118.601562 195.25 -113.328125 195.25 -107.046875 L 162.078125 -111.578125 C 162.585938 -127.148438 166.296875 -140.523438 173.203125 -151.703125 C 180.109375 -162.890625 189.28125 -171.5625 200.71875 -177.71875 C 212.15625 -183.882812 225.035156 -186.96875 239.359375 -186.96875 C 253.429688 -186.96875 265.929688 -184.015625 276.859375 -178.109375 C 287.785156 -172.203125 296.453125 -163.78125 302.859375 -152.84375 C 309.273438 -141.914062 312.484375 -128.785156 312.484375 -113.453125 L 312.484375 0 Z M 254.8125 0"/></g></g></g><g fill-opacity="1" fill="#ffffff"><g transform="translate(183.194637, 1110.231029)"><g><path d="M 96.875 3.765625 C 80.039062 3.765625 65.023438 -0.378906 51.828125 -8.671875 C 38.640625 -16.960938 28.210938 -28.269531 20.546875 -42.59375 C 12.878906 -56.914062 9.046875 -73.25 9.046875 -91.59375 C 9.046875 -109.9375 12.878906 -126.269531 20.546875 -140.59375 C 28.210938 -154.914062 38.640625 -166.222656 51.828125 -174.515625 C 65.023438 -182.816406 80.039062 -186.96875 96.875 -186.96875 C 109.1875 -186.96875 120.304688 -184.578125 130.234375 -179.796875 C 140.160156 -175.023438 148.265625 -168.425781 154.546875 -160 C 160.828125 -151.582031 164.34375 -141.972656 165.09375 -131.171875 L 165.09375 -52.015625 C 164.34375 -41.210938 160.890625 -31.597656 154.734375 -23.171875 C 148.578125 -14.753906 140.472656 -8.160156 130.421875 -3.390625 C 120.367188 1.378906 109.1875 3.765625 96.875 3.765625 Z M 108.5625 -48.25 C 120.875 -48.25 130.796875 -52.332031 138.328125 -60.5 C 145.867188 -68.664062 149.640625 -79.03125 149.640625 -91.59375 C 149.640625 -100.132812 147.941406 -107.671875 144.546875 -114.203125 C 141.160156 -120.742188 136.390625 -125.832031 130.234375 -129.46875 C 124.078125 -133.113281 116.976562 -134.9375 108.9375 -134.9375 C 100.894531 -134.9375 93.796875 -133.113281 87.640625 -129.46875 C 81.484375 -125.832031 76.582031 -120.742188 72.9375 -114.203125 C 69.289062 -107.671875 67.46875 -100.132812 67.46875 -91.59375 C 67.46875 -83.300781 69.226562 -75.890625 72.75 -69.359375 C 76.269531 -62.828125 81.171875 -57.675781 87.453125 -53.90625 C 93.734375 -50.132812 100.769531 -48.25 108.5625 -48.25 Z M 147.375 0 L 147.375 -49.375 L 156.046875 -93.859375 L 147.375 -138.34375 L 147.375 -183.1875 L 203.921875 -183.1875 L 203.921875 0 Z M 147.375 0"/></g></g></g><g fill-opacity="1" fill="#ffffff"><g transform="translate(407.47506, 1110.231029)"><g><path d="M 125.890625 3.765625 C 113.578125 3.765625 102.269531 1.378906 91.96875 -3.390625 C 81.664062 -8.160156 73.25 -14.753906 66.71875 -23.171875 C 60.1875 -31.597656 56.414062 -41.210938 55.40625 -52.015625 L 55.40625 -129.296875 C 56.414062 -140.097656 60.1875 -149.894531 66.71875 -158.6875 C 73.25 -167.488281 81.664062 -174.398438 91.96875 -179.421875 C 102.269531 -184.453125 113.578125 -186.96875 125.890625 -186.96875 C 143.234375 -186.96875 158.625 -182.816406 172.0625 -174.515625 C 185.507812 -166.222656 196.066406 -154.914062 203.734375 -140.59375 C 211.398438 -126.269531 215.234375 -109.9375 215.234375 -91.59375 C 215.234375 -73.25 211.398438 -56.914062 203.734375 -42.59375 C 196.066406 -28.269531 185.507812 -16.960938 172.0625 -8.671875 C 158.625 -0.378906 143.234375 3.765625 125.890625 3.765625 Z M 20.359375 77.265625 L 20.359375 -183.1875 L 78.03125 -183.1875 L 78.03125 -136.078125 L 68.609375 -91.59375 L 77.265625 -47.109375 L 77.265625 77.265625 Z M 115.34375 -48.25 C 123.632812 -48.25 130.859375 -50.132812 137.015625 -53.90625 C 143.171875 -57.675781 148.007812 -62.828125 151.53125 -69.359375 C 155.050781 -75.890625 156.8125 -83.300781 156.8125 -91.59375 C 156.8125 -100.132812 155.050781 -107.671875 151.53125 -114.203125 C 148.007812 -120.742188 143.171875 -125.832031 137.015625 -129.46875 C 130.859375 -133.113281 123.757812 -134.9375 115.71875 -134.9375 C 107.675781 -134.9375 100.578125 -133.113281 94.421875 -129.46875 C 88.265625 -125.832031 83.425781 -120.742188 79.90625 -114.203125 C 76.394531 -107.671875 74.640625 -100.132812 74.640625 -91.59375 C 74.640625 -83.300781 76.332031 -75.890625 79.71875 -69.359375 C 83.113281 -62.828125 87.953125 -57.675781 94.234375 -53.90625 C 100.515625 -50.132812 107.550781 -48.25 115.34375 -48.25 Z M 115.34375 -48.25"/></g></g></g><g fill-opacity="1" fill="#ffffff"><g transform="translate(631.755483, 1110.231029)"><g><path d="M 101.765625 4.140625 C 84.929688 4.140625 70.039062 0.683594 57.09375 -6.21875 C 44.15625 -13.125 34.039062 -22.671875 26.75 -34.859375 C 19.46875 -47.046875 15.828125 -61.054688 15.828125 -76.890625 L 15.828125 -183.1875 L 73.5 -183.1875 L 73.5 -77.65625 C 73.5 -71.363281 74.566406 -65.957031 76.703125 -61.4375 C 78.835938 -56.914062 82.039062 -53.394531 86.3125 -50.875 C 90.59375 -48.363281 95.742188 -47.109375 101.765625 -47.109375 C 110.316406 -47.109375 117.101562 -49.8125 122.125 -55.21875 C 127.15625 -60.625 129.671875 -68.101562 129.671875 -77.65625 L 129.671875 -183.1875 L 187.34375 -183.1875 L 187.34375 -77.265625 C 187.34375 -61.179688 183.695312 -47.046875 176.40625 -34.859375 C 169.113281 -22.671875 159.0625 -13.125 146.25 -6.21875 C 133.4375 0.683594 118.609375 4.140625 101.765625 4.140625 Z M 101.765625 4.140625"/></g></g></g><g fill-opacity="1" fill="#ffffff"><g transform="translate(834.927098, 1110.231029)"><g><path d="M 20.359375 0 L 20.359375 -183.1875 L 78.03125 -183.1875 L 78.03125 0 Z M 78.03125 -100.640625 L 53.90625 -119.484375 C 58.675781 -140.847656 66.710938 -157.4375 78.015625 -169.25 C 89.328125 -181.0625 105.035156 -186.96875 125.140625 -186.96875 C 133.941406 -186.96875 141.671875 -185.644531 148.328125 -183 C 154.984375 -180.363281 160.828125 -176.28125 165.859375 -170.75 L 131.546875 -127.40625 C 129.035156 -130.164062 125.894531 -132.300781 122.125 -133.8125 C 118.351562 -135.320312 114.082031 -136.078125 109.3125 -136.078125 C 99.757812 -136.078125 92.15625 -133.125 86.5 -127.21875 C 80.851562 -121.3125 78.03125 -112.453125 78.03125 -100.640625 Z M 78.03125 -100.640625"/></g></g></g><g fill-opacity="1" fill="#ffffff"><g transform="translate(991.734947, 1110.231029)"><g><path d="M 125.890625 3.765625 C 113.578125 3.765625 102.269531 1.191406 91.96875 -3.953125 C 81.664062 -9.109375 73.25 -16.019531 66.71875 -24.6875 C 60.1875 -33.351562 56.414062 -43.09375 55.40625 -53.90625 L 55.40625 -131.171875 C 56.414062 -141.972656 60.1875 -151.582031 66.71875 -160 C 73.25 -168.425781 81.664062 -175.023438 91.96875 -179.796875 C 102.269531 -184.578125 113.578125 -186.96875 125.890625 -186.96875 C 143.234375 -186.96875 158.625 -182.816406 172.0625 -174.515625 C 185.507812 -166.222656 196.066406 -154.914062 203.734375 -140.59375 C 211.398438 -126.269531 215.234375 -109.9375 215.234375 -91.59375 C 215.234375 -73.25 211.398438 -56.914062 203.734375 -42.59375 C 196.066406 -28.269531 185.507812 -16.960938 172.0625 -8.671875 C 158.625 -0.378906 143.234375 3.765625 125.890625 3.765625 Z M 20.359375 0 L 20.359375 -273.65625 L 78.03125 -273.65625 L 78.03125 -138.34375 L 68.609375 -93.859375 L 77.265625 -49.375 L 77.265625 0 Z M 115.71875 -48.25 C 123.757812 -48.25 130.859375 -50.132812 137.015625 -53.90625 C 143.171875 -57.675781 148.007812 -62.828125 151.53125 -69.359375 C 155.050781 -75.890625 156.8125 -83.300781 156.8125 -91.59375 C 156.8125 -100.132812 155.050781 -107.671875 151.53125 -114.203125 C 148.007812 -120.742188 143.171875 -125.832031 137.015625 -129.46875 C 130.859375 -133.113281 123.757812 -134.9375 115.71875 -134.9375 C 107.675781 -134.9375 100.515625 -133.113281 94.234375 -129.46875 C 87.953125 -125.832031 83.113281 -120.742188 79.71875 -114.203125 C 76.332031 -107.671875 74.640625 -100.132812 74.640625 -91.59375 C 74.640625 -83.050781 76.394531 -75.507812 79.90625 -68.96875 C 83.425781 -62.4375 88.265625 -57.347656 94.421875 -53.703125 C 100.578125 -50.066406 107.675781 -48.25 115.71875 -48.25 Z M 115.71875 -48.25"/></g></g></g><g fill-opacity="1" fill="#ffffff"><g transform="translate(1216.015325, 1110.231029)"><g><path d="M 108.5625 4.140625 C 89.707031 4.140625 72.675781 -0.0664062 57.46875 -8.484375 C 42.269531 -16.898438 30.273438 -28.394531 21.484375 -42.96875 C 12.691406 -57.539062 8.296875 -73.875 8.296875 -91.96875 C 8.296875 -110.0625 12.691406 -126.269531 21.484375 -140.59375 C 30.273438 -154.914062 42.207031 -166.285156 57.28125 -174.703125 C 72.363281 -183.128906 89.457031 -187.34375 108.5625 -187.34375 C 127.65625 -187.34375 144.738281 -183.191406 159.8125 -174.890625 C 174.894531 -166.597656 186.832031 -155.226562 195.625 -140.78125 C 204.425781 -126.332031 208.828125 -110.0625 208.828125 -91.96875 C 208.828125 -73.875 204.425781 -57.539062 195.625 -42.96875 C 186.832031 -28.394531 174.894531 -16.898438 159.8125 -8.484375 C 144.738281 -0.0664062 127.65625 4.140625 108.5625 4.140625 Z M 108.5625 -48.25 C 116.851562 -48.25 124.140625 -50.066406 130.421875 -53.703125 C 136.703125 -57.347656 141.535156 -62.5 144.921875 -69.15625 C 148.316406 -75.820312 150.015625 -83.425781 150.015625 -91.96875 C 150.015625 -100.507812 148.253906 -107.984375 144.734375 -114.390625 C 141.222656 -120.804688 136.390625 -125.832031 130.234375 -129.46875 C 124.078125 -133.113281 116.851562 -134.9375 108.5625 -134.9375 C 100.519531 -134.9375 93.359375 -133.113281 87.078125 -129.46875 C 80.796875 -125.832031 75.894531 -120.742188 72.375 -114.203125 C 68.851562 -107.671875 67.09375 -100.132812 67.09375 -91.59375 C 67.09375 -83.300781 68.851562 -75.820312 72.375 -69.15625 C 75.894531 -62.5 80.796875 -57.347656 87.078125 -53.703125 C 93.359375 -50.066406 100.519531 -48.25 108.5625 -48.25 Z M 108.5625 -48.25"/></g></g></g></svg>